<svg id="chevron-right" xmlns="http://www.w3.org/2000/svg" width="7" height="12.949" viewBox="0 0 7 12.949">
  <path id="chevron-right-2" data-name="chevron-right" d="M.8,12.689q0,.028.005.055a.624.624,0,0,0,.162.341q.019.02.039.039t.043.034q.022.017.046.031a.619.619,0,0,0,.1.048l.053.018.054.013.054.008a.617.617,0,0,0,.164-.005l.053-.011.053-.016.051-.02.049-.026q.024-.014.047-.03t.043-.032q.021-.018.04-.038L7.626,7.148q.019-.019.036-.04t.032-.044q.015-.023.028-.047c.008-.016.016-.033.023-.05a.614.614,0,0,0,.048-.234c0-.011,0-.022,0-.034a.616.616,0,0,0-.032-.183q-.008-.026-.019-.051t-.024-.048a.619.619,0,0,0-.062-.09Q7.64,6.3,7.621,6.283L1.842.505Q1.822.486,1.8.469A.618.618,0,0,0,1.5.338L1.449.332H1.394A.635.635,0,0,0,1.131.4L1.082.426a.662.662,0,0,0-.16.148A.617.617,0,0,0,.863.666Q.85.69.84.716T.822.768Q.814.794.809.821T.8.875a.617.617,0,0,0,.1.418q.015.023.032.044t.036.042l5.35,5.347L.964,12.239a.594.594,0,0,0-.139.234q-.009.026-.015.053a.617.617,0,0,0-.015.163Z" transform="translate(-0.795 -0.331)" fill="#6f818d"/>
</svg>
