<svg id="add" xmlns="http://www.w3.org/2000/svg" width="20" height="20.353" viewBox="0 0 20 20.353">
  <path id="Path_1" data-name="Path 1" d="M1.5,0A2.888,2.888,0,0,0,.926.056,2.025,2.025,0,0,0,.439.217a1,1,0,0,0-.325.24A.44.44,0,0,0,0,.741V10.952a.44.44,0,0,0,.114.283,1,1,0,0,0,.325.24,2.025,2.025,0,0,0,.487.161,2.887,2.887,0,0,0,.574.056,2.471,2.471,0,0,0,1.06-.217c.281-.139.439-.327.439-.523V.741c0-.2-.158-.384-.439-.523A2.47,2.47,0,0,0,1.5,0Z" transform="translate(13.074 4.982) rotate(45)" fill="#fff"/>
  <path id="Path_2" data-name="Path 2" d="M.714,0A.416.416,0,0,0,.441.114,1,1,0,0,0,.209.439,2.079,2.079,0,0,0,.054.926,2.993,2.993,0,0,0,0,1.5,2.55,2.55,0,0,0,.209,2.56c.134.281.315.439.5.438h9.774c.189,0,.371-.157.5-.438A2.551,2.551,0,0,0,11.2,1.5a3,3,0,0,0-.054-.574,2.079,2.079,0,0,0-.155-.487,1,1,0,0,0-.232-.325A.416.416,0,0,0,10.488,0Z" transform="translate(7.1 5.155) rotate(45)" fill="#fff"/>
  <path id="Path_3" data-name="Path 3" d="M10.006.6a10.1,10.1,0,0,0-10,10.177,10.1,10.1,0,0,0,10,10.176,10.1,10.1,0,0,0,10-10.176A10.1,10.1,0,0,0,10.006.6Zm0,1.887a8.205,8.205,0,0,1,8.145,8.291,8.2,8.2,0,0,1-8.145,8.289,8.2,8.2,0,0,1-8.145-8.289A8.205,8.205,0,0,1,10.006,2.485Z" transform="translate(-0.005 -0.599)" fill="#fff"/>
</svg>
