<svg id="bars" xmlns="http://www.w3.org/2000/svg" width="21.468" height="16.571" viewBox="0 0 21.468 16.571">
  <path id="Path_70" data-name="Path 70" d="M1.955.49a.9.9,0,0,0-.723.438,1.908,1.908,0,0,0-.3,1.06,2.121,2.121,0,0,0,.078.575,1.671,1.671,0,0,0,.222.487,1.1,1.1,0,0,0,.332.325.751.751,0,0,0,.392.114H21.378a.9.9,0,0,0,.723-.441,1.911,1.911,0,0,0,.3-1.06A1.908,1.908,0,0,0,22.1.929.9.9,0,0,0,21.378.49Z" transform="translate(-0.931 -0.49)" fill="#fff"/>
  <path id="Path_71" data-name="Path 71" d="M1.955,7.276a.9.9,0,0,0-.723.438,1.908,1.908,0,0,0-.3,1.06,2.121,2.121,0,0,0,.078.575,1.671,1.671,0,0,0,.222.487,1.1,1.1,0,0,0,.332.325.751.751,0,0,0,.392.114H21.378a.9.9,0,0,0,.723-.441,2.024,2.024,0,0,0,0-2.119.9.9,0,0,0-.722-.439Z" transform="translate(-0.931 -0.49)" fill="#fff"/>
  <path id="Path_72" data-name="Path 72" d="M1.955,14.062a.9.9,0,0,0-.723.438,1.908,1.908,0,0,0-.3,1.06,2.121,2.121,0,0,0,.078.575,1.671,1.671,0,0,0,.222.487,1.1,1.1,0,0,0,.332.325.752.752,0,0,0,.392.114H21.378a.9.9,0,0,0,.723-.441,2.024,2.024,0,0,0,0-2.119.9.9,0,0,0-.722-.439Z" transform="translate(-0.931 -0.49)" fill="#fff"/>
</svg>
