<svg xmlns="http://www.w3.org/2000/svg" width="16.203" height="14" viewBox="0 0 16.203 14">
  <path id="ic_visibility_off_24px" d="M9.105,5.947a3.686,3.686,0,0,1,3.684,3.684,3.576,3.576,0,0,1-.265,1.348l2.152,2.152a8.707,8.707,0,0,0,2.527-3.5A8.715,8.715,0,0,0,9.1,4.105a8.581,8.581,0,0,0-2.933.516L7.757,6.213A3.576,3.576,0,0,1,9.105,5.947ZM1.737,3.936l1.68,1.68.339.339A8.7,8.7,0,0,0,1,9.632a8.711,8.711,0,0,0,11.333,4.907l.309.309L14.8,17l.936-.936L2.673,3ZM5.812,8.011,6.954,9.153a2.079,2.079,0,0,0-.059.479,2.208,2.208,0,0,0,2.211,2.211,2.079,2.079,0,0,0,.479-.059l1.142,1.142A3.66,3.66,0,0,1,5.812,8.011Zm3.176-.575,2.321,2.321.015-.118A2.208,2.208,0,0,0,9.113,7.428Z" transform="translate(-1 -3)" fill="#768794"/>
</svg>
